<svg id="Layer_1" data-name="Layer 1" xmlns="http://www.w3.org/2000/svg" xmlns:xlink="http://www.w3.org/1999/xlink" viewBox="0 0 120 115.58"><defs><style>.cls-1{fill:none;}.cls-2{clip-path:url(#clip-path);}.cls-3{fill:#d0f4ef;}.cls-4{fill:#abe0da;}.cls-5{fill:#f72b2b;}.cls-6{fill:#d61b1f;}.cls-7{fill:#628fb1;}.cls-8{fill:#ffbd47;}.cls-9{fill:#38aaff;}</style><clipPath id="clip-path" transform="translate(0.23 -2.34)"><rect class="cls-1" width="120" height="120"/></clipPath></defs><title>calendar</title><g class="cls-2"><path class="cls-3" d="M107.48,107.27H2.67a2.9,2.9,0,0,1-2.9-2.9V18.19A9.2,9.2,0,0,1,9,9h92.22a9.2,9.2,0,0,1,9.2,9.2v86.19A2.9,2.9,0,0,1,107.48,107.27Z" transform="translate(0.23 -2.34)"/><path class="cls-4" d="M110.38,18.19v86.19a2.9,2.9,0,0,1-2.9,2.9h-8.8a2.9,2.9,0,0,0,2.9-2.9V18.19A9.2,9.2,0,0,0,92.39,9h8.8A9.2,9.2,0,0,1,110.38,18.19Z" transform="translate(0.23 -2.34)"/><path class="cls-5" d="M110.38,18.19V32.25H-.23V18.19A9.2,9.2,0,0,1,9,9h92.22A9.2,9.2,0,0,1,110.38,18.19Z" transform="translate(0.23 -2.34)"/><path class="cls-6" d="M110.38,18.19V32.25h-8.79V18.19A9.2,9.2,0,0,0,92.39,9h8.8A9.2,9.2,0,0,1,110.38,18.19Z" transform="translate(0.23 -2.34)"/><path class="cls-7" d="M18.4,43H12.1a1.81,1.81,0,1,1,0-3.62H18.4a1.81,1.81,0,1,1,0,3.62Z" transform="translate(0.23 -2.34)"/><path class="cls-7" d="M37.74,43H31.45a1.81,1.81,0,1,1,0-3.62h6.29a1.81,1.81,0,1,1,0,3.62Z" transform="translate(0.23 -2.34)"/><path class="cls-7" d="M57.08,43H50.79a1.81,1.81,0,0,1,0-3.62h6.29a1.81,1.81,0,1,1,0,3.62Z" transform="translate(0.23 -2.34)"/><path class="cls-7" d="M76.43,43H70.13a1.81,1.81,0,0,1,0-3.62h6.29a1.81,1.81,0,0,1,0,3.62Z" transform="translate(0.23 -2.34)"/><path class="cls-7" d="M95.77,43H89.48a1.81,1.81,0,0,1,0-3.62h6.29a1.81,1.81,0,0,1,0,3.62Z" transform="translate(0.23 -2.34)"/><path class="cls-7" d="M18.4,52.08H12.1a1.81,1.81,0,0,1,0-3.62H18.4a1.81,1.81,0,1,1,0,3.62Z" transform="translate(0.23 -2.34)"/><path class="cls-7" d="M37.74,52.08H31.45a1.81,1.81,0,0,1,0-3.62h6.29a1.81,1.81,0,0,1,0,3.62Z" transform="translate(0.23 -2.34)"/><path class="cls-7" d="M57.08,52.08H50.79a1.81,1.81,0,0,1,0-3.62h6.29a1.81,1.81,0,1,1,0,3.62Z" transform="translate(0.23 -2.34)"/><path class="cls-7" d="M76.43,52.08H70.13a1.81,1.81,0,0,1,0-3.62h6.29a1.81,1.81,0,0,1,0,3.62Z" transform="translate(0.23 -2.34)"/><path class="cls-7" d="M95.77,52.08H89.48a1.81,1.81,0,0,1,0-3.62h6.29a1.81,1.81,0,0,1,0,3.62Z" transform="translate(0.23 -2.34)"/><path class="cls-5" d="M45.84,97.21a5.3,5.3,0,0,1-3.76-1.56l-9.31-9.31a5.32,5.32,0,1,1,7.52-7.52l5.55,5.55L67.58,62.63a5.32,5.32,0,0,1,7.52,7.52l-25.5,25.5A5.3,5.3,0,0,1,45.84,97.21Z" transform="translate(0.23 -2.34)"/><path class="cls-8" d="M19.52,16.32H16.16a2.59,2.59,0,0,1-2.59-2.59V4.93a2.59,2.59,0,0,1,2.59-2.59h3.36a2.59,2.59,0,0,1,2.59,2.59v8.8A2.59,2.59,0,0,1,19.52,16.32Z" transform="translate(0.23 -2.34)"/><path class="cls-8" d="M43.69,16.32H40.33a2.59,2.59,0,0,1-2.59-2.59V4.93a2.59,2.59,0,0,1,2.59-2.59h3.36a2.59,2.59,0,0,1,2.59,2.59v8.8A2.59,2.59,0,0,1,43.69,16.32Z" transform="translate(0.23 -2.34)"/><path class="cls-8" d="M67.86,16.32H64.5a2.59,2.59,0,0,1-2.59-2.59V4.93A2.59,2.59,0,0,1,64.5,2.34h3.36a2.59,2.59,0,0,1,2.59,2.59v8.8A2.59,2.59,0,0,1,67.86,16.32Z" transform="translate(0.23 -2.34)"/><path class="cls-8" d="M92,16.32H88.67a2.59,2.59,0,0,1-2.59-2.59V4.93a2.59,2.59,0,0,1,2.59-2.59H92a2.59,2.59,0,0,1,2.59,2.59v8.8A2.59,2.59,0,0,1,92,16.32Z" transform="translate(0.23 -2.34)"/><path class="cls-9" d="M119.77,95.71A22.21,22.21,0,1,1,97.55,73.5,22.21,22.21,0,0,1,119.77,95.71Z" transform="translate(0.23 -2.34)"/><path class="cls-3" d="M113.53,95.71a16,16,0,1,1-16-16A16,16,0,0,1,113.53,95.71Z" transform="translate(0.23 -2.34)"/><path class="cls-7" d="M97.55,86.46a1.81,1.81,0,0,1-1.81-1.81V82.44a1.81,1.81,0,0,1,3.62,0v2.21A1.81,1.81,0,0,1,97.55,86.46Z" transform="translate(0.23 -2.34)"/><path class="cls-7" d="M97.55,110.79A1.81,1.81,0,0,1,95.74,109v-2.2a1.81,1.81,0,1,1,3.62,0V109A1.81,1.81,0,0,1,97.55,110.79Z" transform="translate(0.23 -2.34)"/><path class="cls-7" d="M110.82,97.52h-2.21a1.81,1.81,0,1,1,0-3.62h2.21a1.81,1.81,0,1,1,0,3.62Z" transform="translate(0.23 -2.34)"/><path class="cls-8" d="M101.54,97.52h-4a1.81,1.81,0,0,1-1.81-1.81V92a1.81,1.81,0,0,1,3.62,0V93.9h2.18a1.81,1.81,0,1,1,0,3.62Z" transform="translate(0.23 -2.34)"/><path class="cls-7" d="M86.49,97.52H84.29a1.81,1.81,0,1,1,0-3.62h2.21a1.81,1.81,0,1,1,0,3.62Z" transform="translate(0.23 -2.34)"/></g></svg>