<svg id="Layer_1" data-name="Layer 1" xmlns="http://www.w3.org/2000/svg" xmlns:xlink="http://www.w3.org/1999/xlink" viewBox="0 0 30 30"><defs><style>.cls-1{fill:none;}.cls-2{clip-path:url(#clip-path);}.cls-3{fill:#dc9f90;}.cls-4{fill:#b35f49;}</style><clipPath id="clip-path" transform="translate(0 0)"><rect class="cls-1" width="30" height="30"/></clipPath></defs><title>discount-footer</title><g class="cls-2"><path class="cls-3" d="M28.62,15l1.32-3.43a.94.94,0,0,0-.28-1.07L26.8,8.19l-.58-3.63a.94.94,0,0,0-.78-.78L21.81,3.2,19.5.35A.94.94,0,0,0,18.44.06L15,1.38,11.57.06A.94.94,0,0,0,10.5.35L8.19,3.2l-3.63.58a.94.94,0,0,0-.78.78L3.2,8.19.35,10.51a.94.94,0,0,0-.28,1.06L1.38,15,.06,18.43A.94.94,0,0,0,.35,19.5L3.2,21.81l.58,3.63a.94.94,0,0,0,.78.78l3.63.58,2.31,2.85a.93.93,0,0,0,1.06.28L15,28.62l3.43,1.32a.94.94,0,0,0,1.06-.29l2.31-2.85,3.63-.58a.94.94,0,0,0,.78-.78l.58-3.63,2.85-2.31a.94.94,0,0,0,.28-1.06Z" transform="translate(0 0)"/><path class="cls-4" d="M12.19,13.13A2.81,2.81,0,1,1,15,10.31,2.82,2.82,0,0,1,12.19,13.13Zm0-3.75a.94.94,0,1,0,.94.94A.94.94,0,0,0,12.19,9.38Z" transform="translate(0 0)"/><path class="cls-4" d="M17.81,22.5a2.81,2.81,0,1,1,2.81-2.81A2.82,2.82,0,0,1,17.81,22.5Zm0-3.75a.94.94,0,1,0,.94.94A.94.94,0,0,0,17.81,18.75Z" transform="translate(0 0)"/><path class="cls-4" d="M10.31,22.5A.94.94,0,0,1,9.55,21L18.93,7.89A.94.94,0,0,1,20.45,9L11.08,22.11A.94.94,0,0,1,10.31,22.5Z" transform="translate(0 0)"/></g></svg>