<svg id="Layer_1" data-name="Layer 1" xmlns="http://www.w3.org/2000/svg" viewBox="0 0 120 120"><defs><style>.cls-1{fill:#87ced9;}.cls-2{fill:#71c4d1;}.cls-3{fill:#5eb3d1;}.cls-4{fill:#ff8a3d;}.cls-5{fill:#fda72f;}.cls-6{fill:#e34b87;}.cls-7{fill:#4398d1;}.cls-8{fill:#d94881;}</style></defs><title>features-img</title><path class="cls-1" d="M8.28,12.41h89a8.28,8.28,0,0,1,8.28,8.28v91A8.28,8.28,0,0,1,97.24,120h-89A8.28,8.28,0,0,1,0,111.72v-91A8.28,8.28,0,0,1,8.28,12.41Z"/><path class="cls-2" d="M70.34,120h26.9a8.28,8.28,0,0,0,8.28-8.28V55.86Z"/><path class="cls-2" d="M78.62,57.93H86.9L91,64.14,99.1,48l-5.64-4.07L86.2,42.77Z"/><path class="cls-3" d="M10.34,18.62H6.21v4.14h4.14Z"/><path class="cls-3" d="M18.62,18.62H14.48v4.14h4.14Z"/><path class="cls-3" d="M26.9,18.62H22.76v4.14H26.9Z"/><path class="cls-3" d="M64.14,26.9H6.21V31H64.14Z"/><path class="cls-4" d="M95.17,0l7.92,5.71,9.64,1.56,1.56,9.64L120,24.83l-5.71,7.92-1.56,9.64-9.64,1.56-7.92,5.71-7.92-5.71-9.64-1.56-1.56-9.64-5.71-7.92,5.71-7.92,1.56-9.64,9.64-1.56Z"/><path class="cls-5" d="M95.17,37.24A12.41,12.41,0,1,0,82.76,24.83,12.41,12.41,0,0,0,95.17,37.24Z"/><path class="cls-6" d="M103.09,43.94,97.45,48l8.06,16.13,4.14-6.21h8.28l-7.58-15.16Z"/><path class="cls-6" d="M80,42.77,72.41,57.93h8.28l4.14,6.21L92.89,48l-5.64-4.07Z"/><path class="cls-4" d="M97.24,31H93.1V24L92,24.61l-1.85-3.7,4.14-2.07a2.07,2.07,0,0,1,3,1.85Z"/><path class="cls-6" d="M24.83,39.31H8.28V55.86H24.83Z"/><path class="cls-3" d="M45.52,37.24H31v4.14H45.52Z"/><path class="cls-3" d="M66.21,45.52H31v4.14H66.21Z"/><path class="cls-3" d="M49.65,53.79H31v4.14H49.65Z"/><path class="cls-3" d="M66.21,53.79H53.79v4.14H66.21Z"/><path class="cls-7" d="M24.83,66.21H8.28V82.76H24.83Z"/><path class="cls-3" d="M45.52,64.14H31v4.14H45.52Z"/><path class="cls-3" d="M78.62,72.41H31v4.14H78.62Z"/><path class="cls-3" d="M49.65,80.69H31v4.14H49.65Z"/><path class="cls-3" d="M78.62,80.69H53.79v4.14H78.62Z"/><path class="cls-5" d="M24.83,93.1H8.28v16.55H24.83Z"/><path class="cls-3" d="M45.52,91H31v4.14H45.52Z"/><path class="cls-3" d="M78.62,99.31H31v4.14H78.62Z"/><path class="cls-3" d="M49.65,107.59H31v4.14H49.65Z"/><path class="cls-3" d="M78.62,107.59H53.79v4.14H78.62Z"/><path class="cls-8" d="M87.25,43.94,80,42.77l-2.52,5,7.36,1.84,4.83,4.83L92.89,48Z"/><path class="cls-8" d="M113.16,48.38l-2.81-5.62-7.26,1.18L97.45,48l2.8,5.59,5.26-3.95Z"/></svg>