<svg id="Layer_1" data-name="Layer 1" xmlns="http://www.w3.org/2000/svg" viewBox="0 0 15.83 20"><defs><style>.cls-1{fill:#2bf547;}</style></defs><title>kettlebell</title><path class="cls-1" d="M13.77,11.69a.83.83,0,0,0-.83.83A2.07,2.07,0,0,1,12.33,14a.83.83,0,1,0,1.18,1.18,3.73,3.73,0,0,0,1.1-2.65A.83.83,0,0,0,13.77,11.69Z" transform="translate(-2.08)"/><path class="cls-1" d="M11.25,0H8.75a5,5,0,0,0-5,5V7.24a7.92,7.92,0,1,0,12.5,0V5A5,5,0,0,0,11.25,0ZM10,18.33A6.25,6.25,0,0,1,5.22,8.06l0,0L5.29,8l0-.07,0-.08,0-.08,0-.08a.76.76,0,0,0,0-.09s0,0,0,0V5A3.34,3.34,0,0,1,8.75,1.67h2.5A3.34,3.34,0,0,1,14.58,5V7.52s0,0,0,0,0,.06,0,.09l0,.08,0,.08,0,.08,0,.07,0,.07,0,0A6.25,6.25,0,0,1,10,18.33Z" transform="translate(-2.08)"/><path class="cls-1" d="M13.33,6.67V5.42a2.5,2.5,0,0,0-2.5-2.5H9.17a2.5,2.5,0,0,0-2.5,2.5V6.67a.83.83,0,0,0,.83.83h5A.83.83,0,0,0,13.33,6.67Zm-1.67-.83H8.33V5.42a.83.83,0,0,1,.83-.83h1.67a.83.83,0,0,1,.83.83Z" transform="translate(-2.08)"/></svg>