<svg id="Layer_1" data-name="Layer 1" xmlns="http://www.w3.org/2000/svg" xmlns:xlink="http://www.w3.org/1999/xlink" viewBox="0 0 50.21 60"><defs><style>.cls-1{fill:none;}.cls-2{clip-path:url(#clip-path);}.cls-3{fill:#c69c6d;}.cls-4{fill:#a67c52;}.cls-5{fill:#f9a12b;}.cls-6{fill:#bb7920;}.cls-7{fill:#fab455;}.cls-8{fill:#fff;}.cls-9{fill:#3e424b;}</style><clipPath id="clip-path" transform="translate(-4.89)"><rect class="cls-1" width="60" height="60"/></clipPath></defs><title>nut</title><g class="cls-2"><path class="cls-3" d="M50.19,26.54h1.65a2.38,2.38,0,0,0,2.38-2.38A18.38,18.38,0,0,0,35.84,5.78h-.15A5.77,5.77,0,0,1,29.92.09V0a5.77,5.77,0,0,1-5.77,5.77A18.38,18.38,0,0,0,5.77,24.16a2.38,2.38,0,0,0,2.38,2.38H9.81" transform="translate(-4.89)"/><path class="cls-4" d="M13.14,24.16A18.38,18.38,0,0,1,31.52,5.78a5.75,5.75,0,0,0,2.09-.39A5.77,5.77,0,0,1,29.92.09V0a5.77,5.77,0,0,1-5.77,5.77A18.38,18.38,0,0,0,5.77,24.16a2.38,2.38,0,0,0,2.38,2.38h7.36A2.38,2.38,0,0,1,13.14,24.16Z" transform="translate(-4.89)"/><path class="cls-4" d="M46.84,24.16A18.38,18.38,0,0,0,28.45,5.78a5.75,5.75,0,0,1-2.09-.39A5.77,5.77,0,0,0,30,.09V0a5.77,5.77,0,0,0,5.77,5.77A18.38,18.38,0,0,1,54.2,24.16a2.38,2.38,0,0,1-2.38,2.38H44.45A2.38,2.38,0,0,0,46.84,24.16Z" transform="translate(-4.89)"/><path class="cls-5" d="M30,59.12c0-2.72,1.65-4.13,4.16-5.19A25.77,25.77,0,0,0,49.93,30.28l-.1-4.89c0-5.26-8.91-9.52-19.9-9.52S10,20.13,10,25.39l0,4.89A25.77,25.77,0,0,0,25.79,53.93c2.51,1.06,4.14,2.47,4.16,5.19H30Z" transform="translate(-4.89)"/><path class="cls-5" d="M30,59.12c0-2.72,1.65-4.13,4.16-5.19A25.77,25.77,0,0,0,49.93,30.28l-.1-4.89c0-5.26-8.91-9.52-19.9-9.52S10,20.13,10,25.39l0,4.89A25.77,25.77,0,0,0,25.79,53.93c2.51,1.06,4.14,2.47,4.16,5.19H30Z" transform="translate(-4.89)"/><path class="cls-6" d="M49.82,25.39c0-5.26-8.91-9.52-19.9-9.52q-1.22,0-2.39.07C37.39,16.51,45,20.52,45,25.39l.1,4.89A25.77,25.77,0,0,1,29.39,53.93a11.1,11.1,0,0,0-1.8.94A4.78,4.78,0,0,1,30,59.12H30c0-2.72,1.65-4.13,4.16-5.19A25.77,25.77,0,0,0,49.93,30.28Z" transform="translate(-4.89)"/><path class="cls-6" d="M10,25.39c0-5.26,8.91-9.52,19.9-9.52q1.22,0,2.39.07c-9.86.57-17.51,4.58-17.51,9.45l-.1,4.89A25.77,25.77,0,0,0,30.4,53.93a11.1,11.1,0,0,1,1.8.94,4.79,4.79,0,0,0-2.36,4.25h-.07c0-2.72-1.65-4.13-4.16-5.19A25.77,25.77,0,0,1,9.86,30.28Z" transform="translate(-4.89)"/><path d="M30.89,60H29.07v-.88c0-2-1.06-3.3-3.62-4.38A26.61,26.61,0,0,1,9.16,30.28l0-4.89c0-2.9,2.25-5.58,6.33-7.53A34.35,34.35,0,0,1,29.92,15a34.35,34.35,0,0,1,14.45,2.87c4.08,1.95,6.32,4.62,6.33,7.51l.1,4.9A26.61,26.61,0,0,1,34.52,54.74c-2.56,1.08-3.61,2.35-3.62,4.38Zm-1-43.25c-10.31,0-19,4-19,8.64l0,4.89A24.85,24.85,0,0,0,26.13,53.12,8,8,0,0,1,30,56a8,8,0,0,1,3.85-2.89A24.85,24.85,0,0,0,49,30.29l-.1-4.9C48.94,20.71,40.23,16.75,29.92,16.75Z" transform="translate(-4.89)"/><path class="cls-7" d="M32.31,55.38a2.31,2.31,0,1,0-4.61,0l2,1.53Z" transform="translate(-4.89)"/><path class="cls-8" d="M43.57,41,42,40.32a24.72,24.72,0,0,0,2.15-10h1.76A26.47,26.47,0,0,1,43.57,41Z" transform="translate(-4.89)"/><path class="cls-8" d="M39.66,47.3l-1.35-1.13a25,25,0,0,0,2.46-3.52l1.52.88A26.76,26.76,0,0,1,39.66,47.3Z" transform="translate(-4.89)"/><path d="M49,17.07H47.28v1.76H49Z" transform="translate(-4.89)"/><path d="M50.8,18.83H49V20.6H50.8Z" transform="translate(-4.89)"/><path d="M47.28,13.55H45.52v1.76h1.76Z" transform="translate(-4.89)"/><path d="M43.76,10.91H42v1.76h1.76Z" transform="translate(-4.89)"/><path d="M41.12,13.55H39.36v1.76h1.76Z" transform="translate(-4.89)"/><path d="M38.47,10H36.71v1.76h1.76Z" transform="translate(-4.89)"/><path d="M35.83,8.27H34.07V10h1.76Z" transform="translate(-4.89)"/><path d="M30.55,6.51H28.79V8.27h1.76Z" transform="translate(-4.89)"/><path d="M32.31,12H30.55v1.76h1.76Z" transform="translate(-4.89)"/><path d="M27,9.15H25.27v1.76H27Z" transform="translate(-4.89)"/><path d="M25.27,11.79H23.51v1.76h1.76Z" transform="translate(-4.89)"/><path d="M20,10.91H18.22v1.76H20Z" transform="translate(-4.89)"/><path d="M22.63,8.27H20.87V10h1.76Z" transform="translate(-4.89)"/><path class="cls-9" d="M35.84,4.9h-.15A4.91,4.91,0,0,1,30.8.08V0H29A4.89,4.89,0,0,1,24.15,4.9,19.28,19.28,0,0,0,4.89,24.16a3.27,3.27,0,0,0,3.26,3.26h1v2.86A26.61,26.61,0,0,0,25.45,54.74c2.56,1.08,3.61,2.35,3.62,4.38V60h1.82v-.88c0-2,1.06-3.3,3.62-4.38A26.61,26.61,0,0,0,50.81,30.28l-.06-2.86h1.1a3.27,3.27,0,0,0,3.26-3.26A19.28,19.28,0,0,0,35.84,4.9ZM30,56a5.82,5.82,0,0,0-1.2-1.36,1.42,1.42,0,0,1,2.43,0A5.83,5.83,0,0,0,30,56Zm3.85-2.89c-.38.16-.77.34-1.15.54a3.18,3.18,0,0,0-5.37,0c-.39-.21-.79-.39-1.18-.56A24.85,24.85,0,0,1,10.92,30.28l0-4.89c0-1.73,1.19-3.37,3.22-4.73v7h1.76V19.63q.8-.4,1.7-.75v4.2h1.76V18.26q.82-.26,1.7-.47v1.83h1.76V17.41a39.13,39.13,0,0,1,14.39,0v2.19H39V17.83q.88.22,1.7.48v4.77h1.76V18.94q.9.36,1.7.77v8h1.76V20.76c1.93,1.35,3.06,2.94,3.06,4.63l.1,4.9A24.85,24.85,0,0,1,33.83,53.12Zm18-27.45H50.71v-.28a5.61,5.61,0,0,0-.15-1.26h1.13V22.36H49.92v.14a12.11,12.11,0,0,0-5.55-4.63A34.35,34.35,0,0,0,29.92,15a34.35,34.35,0,0,0-14.45,2.87A12.3,12.3,0,0,0,10,22.36H8.54v1.76h.75a5.6,5.6,0,0,0-.15,1.28v.27h-1a1.51,1.51,0,0,1-1.5-1.5,17.46,17.46,0,0,1,.57-4.44H8.54V18H7.79a17.37,17.37,0,0,1,.74-1.68V18H10.3V16.19H8.58A17.52,17.52,0,0,1,24.15,6.66a6.65,6.65,0,0,0,5.77-3.35,6.67,6.67,0,0,0,5.76,3.35h.15a17.52,17.52,0,0,1,17.5,17.5A1.51,1.51,0,0,1,51.84,25.66Z" transform="translate(-4.89)"/><path d="M14.7,12.67H12.94v1.76H14.7Z" transform="translate(-4.89)"/><path d="M16.46,15.31H14.7v1.76h1.76Z" transform="translate(-4.89)"/><path d="M17.34,9.15H15.58v1.76h1.76Z" transform="translate(-4.89)"/></g></svg>