<svg id="Layer_1" data-name="Layer 1" xmlns="http://www.w3.org/2000/svg" viewBox="0 0 120 120"><defs><style>.cls-1{fill:#f5cf51;}.cls-2{fill:#d58a2d;}.cls-3{fill:#e2902a;}.cls-4{fill:#bb5335;}.cls-5{fill:#d25e3e;}.cls-6{fill:#e5846a;}.cls-7{fill:#fae8b1;}.cls-8{fill:#fbf1d1;}.cls-9{fill:#a0452c;}</style></defs><title>nuts</title><path class="cls-1" d="M120,60A60,60,0,1,1,60,0,60,60,0,0,1,120,60Z"/><path class="cls-2" d="M46.66,51.83l-.69.68C24,73.71-3.4,46.27,17.8,24.35l.68-.69C31.38,10.76,48.18,6.08,58.56,11.75,64.23,22.13,59.55,38.93,46.66,51.83Z"/><path class="cls-3" d="M46.66,51.83l-.69.68a26.85,26.85,0,0,1-11.64,6.93,18.79,18.79,0,0,1-4-1.64,2.18,2.18,0,0,1,.26-3.94A48.12,48.12,0,0,0,42.4,46.69C51,39.8,56.14,31.94,53.89,29.13a2.25,2.25,0,0,0-.23-.25C51,33,46,38.24,39.69,43.29A79.78,79.78,0,0,1,26.3,52.13a2.18,2.18,0,0,1-2.83-.77l-.14-.22A2.18,2.18,0,0,1,24,48.21a85,85,0,0,0,11-9.52C41.8,31.82,46.62,25.52,45.71,24.6s-7.22,3.91-14.09,10.77c-2.84,2.84-5.33,5.59-7.21,7.9A2.18,2.18,0,0,1,20.54,42v-.06a2.19,2.19,0,0,1,.31-1.21,88.52,88.52,0,0,1,6.71-9.55c5.06-6.32,10.33-11.32,14.41-14a2.09,2.09,0,0,0-.25-.23,2.74,2.74,0,0,0-1.9-.52.6.6,0,0,1-.35-1.11,42.41,42.41,0,0,1,14-5.44,18.88,18.88,0,0,1,5.12,1.87C64.23,22.13,59.55,38.93,46.66,51.83Z"/><path class="cls-4" d="M25,75.35l.53-.52C42.43,58.76,73.09,89.43,57,106.31l-.52.53c-9.85,9.85-24.83,11.28-35.6,4.11C13.73,100.18,15.16,85.2,25,75.35Z"/><path class="cls-5" d="M38.46,72.36l.79-.77q.5-.48,1-.91C55.09,73.59,69,93.76,57,106.31l-.52.53a28.62,28.62,0,0,1-30.87,6.61C22.09,100.28,26.57,84.24,38.46,72.36Z"/><path class="cls-6" d="M51.83,91.46a14.74,14.74,0,0,1-12.2.76A14.74,14.74,0,0,1,40.4,80c-4.76-1.35-8.52-4.46-10.08-8.37v0C45.83,64.83,67,86,60.24,101.53h0C56.29,100,53.18,96.22,51.83,91.46Z"/><path class="cls-7" d="M109.84,65.31a8.25,8.25,0,0,1,4.94,14l-.1.1c-11,11-30.3,9.48-43.09-3.31S57.31,43.94,68.28,33l.1-.1a8.25,8.25,0,0,1,14,4.94,31.14,31.14,0,0,0,9.14,18.36A31.14,31.14,0,0,0,109.84,65.31Z"/><path class="cls-8" d="M116.9,75.52c-11.12,5.73-26.35,2.93-37-7.74s-13.48-25.9-7.74-37A8.24,8.24,0,0,1,76.9,31a8.16,8.16,0,0,1,5.44,6.82,31.15,31.15,0,0,0,9.14,18.36,31.15,31.15,0,0,0,18.36,9.14,8.16,8.16,0,0,1,6.82,5.44A8.25,8.25,0,0,1,116.9,75.52ZM8.83,65c-1,1.9-.38,4.6,1.58,6.55s4.66,2.54,6.55,1.58c1-1.9.38-4.6-1.58-6.55S10.72,64,8.83,65ZM98.41,39.82c2-2,2.54-4.66,1.58-6.55-1.9-1-4.59-.38-6.55,1.58S90.9,39.5,91.86,41.4C93.76,42.36,96.46,41.77,98.41,39.82Z"/><path class="cls-9" d="M84.35,105.44c-2,2-4.66,2.54-6.55,1.58-1-1.9-.38-4.6,1.58-6.55s4.65-2.54,6.55-1.58C86.89,100.79,86.31,103.49,84.35,105.44ZM81.58,23c1-1.9.38-4.6-1.58-6.55s-4.66-2.54-6.55-1.58c-1,1.9-.38,4.59,1.58,6.55S79.68,23.95,81.58,23ZM47.33,59.38c-1,1.9-.38,4.6,1.58,6.55s4.66,2.54,6.55,1.58c1-1.9.38-4.6-1.58-6.55S49.23,58.42,47.33,59.38Z"/></svg>