<svg id="Layer_1" data-name="Layer 1" xmlns="http://www.w3.org/2000/svg" xmlns:xlink="http://www.w3.org/1999/xlink" viewBox="0 0 120 120"><defs><style>.cls-1{fill:none;}.cls-2{clip-path:url(#clip-path);}.cls-3{fill:#f26065;}.cls-4{fill:#40c4ad;}.cls-5{fill:#15b2a2;}.cls-6{fill:#fff;}.cls-7{fill:#ffe662;}.cls-8{fill:#ffb525;}.cls-9{fill:#349cdd;}</style><clipPath id="clip-path"><rect class="cls-1" width="120" height="120"/></clipPath></defs><title>rate</title><g class="cls-2"><path class="cls-3" d="M120,60a60,60,0,0,1-38.18,55.91,59.06,59.06,0,0,1-6.16,2,60.49,60.49,0,0,1-27.06,1,59,59,0,0,1-6.16-1.53A60,60,0,1,1,120,60Z"/><path class="cls-4" d="M48.61,61v57.93a59,59,0,0,1-6.16-1.53A60,60,0,0,1,9.23,92V61Z"/><path class="cls-5" d="M48.61,61v57.93a59,59,0,0,1-6.16-1.53,59.93,59.93,0,0,1-7-2.62V61Z"/><path class="cls-6" d="M23.56,93.27v-.61c0-2.36-1.47-3-3.51-3-.93,0-1.25-.8-1.25-1.63s.32-1.63,1.25-1.63c1.6,0,2.94-.38,2.94-3.13,0-2.11-1.08-2.81-2.81-2.81-2.08,0-2.84.86-2.84,2.14,0,1-.45,1.6-2,1.6-1.85,0-2.14-.45-2.14-1.79,0-2.27,1.6-5.56,7-5.56,3.86,0,6.74,1.47,6.74,5.72,0,2.52-.93,4.57-2.49,5.3a4.76,4.76,0,0,1,3.26,4.82v.61c0,5.14-3.45,7.09-7.66,7.09-5.24,0-7.34-3.23-7.34-5.81,0-1.28.54-1.63,2-1.63,1.69,0,2.14.45,2.14,1.47,0,1.44,1.28,2.33,3.32,2.33C22.53,96.72,23.56,95.7,23.56,93.27Z"/><path class="cls-6" d="M30.17,93V84.14c0-5.33,3.26-7.31,7.47-7.31s7.5,2,7.5,7.31V93c0,5.33-3.29,7.31-7.5,7.31S30.17,98.38,30.17,93ZM41,84.14c0-2.52-1.28-3.67-3.35-3.67s-3.32,1.15-3.32,3.67V93c0,2.52,1.21,3.67,3.32,3.67S41,95.57,41,93Z"/><path class="cls-7" d="M81.82,27.56v88.34a59.55,59.55,0,0,1-13.14,3.47,60.45,60.45,0,0,1-26.24-2V27.56Z"/><path class="cls-8" d="M81.82,27.56v88.34a59.55,59.55,0,0,1-13.14,3.47V27.56Z"/><path class="cls-6" d="M47.53,84.41V78.94c0-3.81,2.5-5.2,5.77-5.2s5.77,1.39,5.77,5.2v5.46c0,3.81-2.54,5.2-5.77,5.2S47.53,88.22,47.53,84.41Zm7.7-5.46a1.69,1.69,0,0,0-1.92-1.85,1.66,1.66,0,0,0-1.89,1.85v5.46a1.66,1.66,0,0,0,1.89,1.85,1.69,1.69,0,0,0,1.92-1.85ZM71,74.21a1.67,1.67,0,0,1-.15.73L57.31,102.69a1.93,1.93,0,0,1-1.73,1,2.13,2.13,0,0,1-2.16-2,1.73,1.73,0,0,1,.19-.73L67.12,73.13a1.7,1.7,0,0,1,1.62-1A2.2,2.2,0,0,1,71,74.21ZM65.2,96.8V91.33c0-3.81,2.5-5.2,5.77-5.2s5.77,1.39,5.77,5.2V96.8c0,3.81-2.54,5.2-5.77,5.2S65.2,100.61,65.2,96.8Zm7.7-5.46A1.69,1.69,0,0,0,71,89.49a1.66,1.66,0,0,0-1.89,1.85V96.8A1.66,1.66,0,0,0,71,98.65a1.69,1.69,0,0,0,1.92-1.85Z"/><path class="cls-6" d="M53.55,52.93c4.22,0,7.5,1.82,7.5,6.83v.61c0,5.24-3.32,7.19-7.44,7.19-4.89,0-7.54-2.81-7.54-5.78,0-1.47.77-1.88,2.08-1.88,1.76,0,2.08.7,2.08,1.6,0,1.56,1.44,2.43,3.29,2.43,2.11,0,3.38-1.12,3.38-3.54v-.61c0-2.43-1.28-3.58-3.35-3.58H48.82c-1.31,0-1.66-.64-1.66-1.63,0-.26,0-.54,0-.83l.83-8.4c.06-.8.32-1.31.8-1.31h9.84c.83,0,1.25.93,1.25,1.82s-.42,1.82-1.25,1.82H51.47l-.38,5.27h2.46Z"/><path class="cls-6" d="M63.22,60.24V51.33C63.22,46,66.48,44,70.69,44s7.5,2,7.5,7.31v8.91c0,5.33-3.29,7.31-7.5,7.31S63.22,65.57,63.22,60.24ZM74,51.33c0-2.52-1.28-3.67-3.35-3.67s-3.32,1.15-3.32,3.67v8.91c0,2.52,1.21,3.67,3.32,3.67S74,62.76,74,60.24Z"/><path class="cls-9" d="M115,3.58V83.93a60.13,60.13,0,0,1-39.37,34V3.58Z"/><path class="cls-6" d="M94.42,19.82a6.54,6.54,0,0,1-.8,2.43L85.55,37.77a1.24,1.24,0,0,1-1.18.61c-1.31,0-2.62-.89-2.62-2.08a1.27,1.27,0,0,1,.19-.73l8.33-14.94V18.51H83.6V21.1c0,.77-1,1.34-2.11,1.34s-2-.57-2-1.34V16.18c0-.64.89-1.31,1.82-1.31H92.6c.8,0,1.82.67,1.82,1.31v3.64Z"/><path class="cls-6" d="M96.28,31.09V22.18c0-5.33,3.26-7.31,7.47-7.31s7.5,2,7.5,7.31v8.91c0,5.33-3.29,7.31-7.5,7.31S96.28,36.43,96.28,31.09Zm10.82-8.91c0-2.52-1.28-3.67-3.35-3.67s-3.32,1.15-3.32,3.67v8.91c0,2.52,1.21,3.67,3.32,3.67s3.35-1.15,3.35-3.67Z"/><path class="cls-6" d="M80.75,54.6V49.14c0-3.81,2.5-5.2,5.77-5.2s5.77,1.39,5.77,5.2V54.6c0,3.81-2.54,5.2-5.77,5.2S80.75,58.41,80.75,54.6Zm7.7-5.46a1.69,1.69,0,0,0-1.92-1.85,1.66,1.66,0,0,0-1.89,1.85V54.6a1.66,1.66,0,0,0,1.89,1.85,1.69,1.69,0,0,0,1.92-1.85Zm15.78-4.73a1.66,1.66,0,0,1-.15.73L90.52,72.88a1.93,1.93,0,0,1-1.73,1,2.13,2.13,0,0,1-2.16-2,1.73,1.73,0,0,1,.19-.73l13.51-27.75a1.7,1.7,0,0,1,1.62-1A2.2,2.2,0,0,1,104.22,44.4ZM98.41,67V61.53c0-3.81,2.5-5.19,5.77-5.19S110,57.72,110,61.53V67c0,3.81-2.54,5.2-5.77,5.2S98.41,70.8,98.41,67Zm7.7-5.46a1.69,1.69,0,0,0-1.92-1.85,1.66,1.66,0,0,0-1.89,1.85V67a1.66,1.66,0,0,0,1.89,1.85A1.69,1.69,0,0,0,106.11,67Z"/></g></svg>