<svg id="Layer_1" data-name="Layer 1" xmlns="http://www.w3.org/2000/svg" viewBox="0 0 36 24.54"><defs><style>.cls-1{fill:#16bd2d;}</style></defs><title>delivery-truck</title><path class="cls-1" d="M29.43,23.67a3.32,3.32,0,0,0-2.35,1,3.26,3.26,0,0,0,0,4.66,3.34,3.34,0,0,0,2.35,1,3.3,3.3,0,0,0,0-6.6Zm0,5.13a1.83,1.83,0,1,1,0-3.67,1.83,1.83,0,0,1,0,3.67Zm.85-16.12a.71.71,0,0,0-.49-.19H26a.74.74,0,0,0-.73.73v6A.74.74,0,0,0,26,20h6a.74.74,0,0,0,.73-.73v-4a.73.73,0,0,0-.24-.54Zm1,5.82h-4.5V14h2.74l1.76,1.58ZM11.53,23.67a3.32,3.32,0,0,0-2.35,1,3.26,3.26,0,0,0,0,4.66,3.34,3.34,0,0,0,2.35,1,3.3,3.3,0,0,0,0-6.6Zm0,5.13a1.83,1.83,0,1,1,0-3.67,1.83,1.83,0,0,1,0,3.67ZM6.64,24.58H5.17V22.63a.73.73,0,0,0-1.47,0v2.68a.74.74,0,0,0,.73.73H6.64a.73.73,0,1,0,0-1.47Zm3.72-4a.74.74,0,0,0-.73-.73H.73a.73.73,0,0,0,0,1.47H9.62A.73.73,0,0,0,10.36,20.58ZM2.22,17.93l8.89.05a.74.74,0,0,0,.74-.73.73.73,0,0,0-.73-.74l-8.89-.05h0a.73.73,0,0,0,0,1.47Zm1.5-3.33h8.89a.73.73,0,1,0,0-1.47H3.72a.73.73,0,0,0,0,1.47Zm32-1L30.48,9.27A.72.72,0,0,0,30,9.1H23.84V6.46a.74.74,0,0,0-.73-.73H4.43a.74.74,0,0,0-.73.73v5.37a.73.73,0,1,0,1.47,0V7.19H22.38V24.58h-6a.73.73,0,1,0,0,1.47h9a.73.73,0,0,0,0-1.47H23.85v-14h5.91l4.78,4-.05,10h-.76a.73.73,0,0,0,0,1.47h1.49a.73.73,0,0,0,.73-.73L36,14.19A.77.77,0,0,0,35.73,13.62Z" transform="translate(0 -5.73)"/></svg>