<svg id="Layer_1" data-name="Layer 1" xmlns="http://www.w3.org/2000/svg" xmlns:xlink="http://www.w3.org/1999/xlink" viewBox="0 0 32 32"><defs><style>.cls-1{fill:none;}.cls-2{clip-path:url(#clip-path);}.cls-3{fill:#dc9f90;}</style><clipPath id="clip-path"><rect class="cls-1" width="32" height="32"/></clipPath></defs><title>factory</title><g class="cls-2"><path class="cls-3" d="M31.53,31.06H30V24.62A1.47,1.47,0,0,0,29,22H26l-.47-7.58A.47.47,0,0,0,25,14H23a.47.47,0,0,0-.47.44L22.07,22H20.95l-.47-7.58A.47.47,0,0,0,20,14H18a.47.47,0,0,0-.47.44L17.06,22H15.94l-.47-7.58A.47.47,0,0,0,15,14H13a.47.47,0,0,0-.47.44L12.05,22H10.75L10.46,9A.47.47,0,0,0,10,8.52H7A.47.47,0,0,0,6.51,9L6.18,24H2.47a1.47,1.47,0,0,0-1,2.58v4.44h-1a.47.47,0,1,0,0,.94H31.53a.47.47,0,1,0,0-.94Zm-25.4-5H4.48a.47.47,0,1,0,0,.94H6.11L6,31.06H2.44V27h0a.47.47,0,1,0,0-.94.53.53,0,1,1,0-1.07H6.16ZM23.45,15h1.12L25,22H23Zm-5,0h1.12L20,22H18Zm-5,0h1.12L15,22H13ZM8,31.06H7L7.44,9.45H9.53L9.81,22H9a1.47,1.47,0,0,0-1,2.58Zm21-7H28A.47.47,0,1,0,28,25h1v6.08H9V25H26A.47.47,0,0,0,26,24H9A.53.53,0,1,1,9,23H29A.53.53,0,0,1,29,24Z"/><path class="cls-3" d="M26,0a5.94,5.94,0,0,0-3.83,1.4,4.46,4.46,0,0,0-5.81.39,3.47,3.47,0,0,0-4.55,1.8,2.13,2.13,0,0,0-.58-.08A2.22,2.22,0,0,0,9.14,5H9A1.47,1.47,0,0,0,7.51,6.48a.47.47,0,1,0,.94,0A.53.53,0,0,1,9,5.95.52.52,0,0,1,9.26,6,.47.47,0,0,0,10,5.65a1.28,1.28,0,0,1,1.27-1.21,1.26,1.26,0,0,1,.63.17.47.47,0,0,0,.68-.29,2.53,2.53,0,0,1,3.7-1.56.47.47,0,0,0,.59-.1,3.53,3.53,0,0,1,5.05-.31.47.47,0,0,0,.64,0,5,5,0,1,1-.93,6,.47.47,0,0,0-.61-.2,3.52,3.52,0,0,1-4.15-.9.47.47,0,0,0-.59-.1A2.53,2.53,0,0,1,13,6.52a.47.47,0,0,0-.37-.18h0a.47.47,0,0,0-.37.18,1.27,1.27,0,0,1-1,.5.47.47,0,0,0,0,.94,2.19,2.19,0,0,0,1.35-.47,3.46,3.46,0,0,0,3.78.68,4.47,4.47,0,0,0,3.14,1.29A4.42,4.42,0,0,0,21,9.2,6,6,0,1,0,26,0Z"/><path class="cls-3" d="M12,26.05a.47.47,0,0,0-.47.47v1a.47.47,0,1,0,.94,0v-1A.47.47,0,0,0,12,26.05Z"/><path class="cls-3" d="M14,26.05a.47.47,0,0,0-.47.47v1a.47.47,0,1,0,.94,0v-1A.47.47,0,0,0,14,26.05Z"/><path class="cls-3" d="M16,26.05a.47.47,0,0,0-.47.47v1a.47.47,0,1,0,.94,0v-1A.47.47,0,0,0,16,26.05Z"/><path class="cls-3" d="M18,26.05a.47.47,0,0,0-.47.47v1a.47.47,0,1,0,.94,0v-1A.47.47,0,0,0,18,26.05Z"/><path class="cls-3" d="M20,26.05a.47.47,0,0,0-.47.47v1a.47.47,0,1,0,.94,0v-1A.47.47,0,0,0,20,26.05Z"/><path class="cls-3" d="M22,26.05a.47.47,0,0,0-.47.47v1a.47.47,0,1,0,.94,0v-1A.47.47,0,0,0,22,26.05Z"/><path class="cls-3" d="M24,26.05a.47.47,0,0,0-.47.47v1a.47.47,0,1,0,.94,0v-1A.47.47,0,0,0,24,26.05Z"/><path class="cls-3" d="M26,26.05a.47.47,0,0,0-.47.47v1a.47.47,0,1,0,.94,0v-1A.47.47,0,0,0,26,26.05Z"/></g></svg>