<svg id="Layer_1" data-name="Layer 1" xmlns="http://www.w3.org/2000/svg" viewBox="0 0 28.8 30"><defs><style>.cls-1{fill:#16bd2d;}</style></defs><title>phone-book</title><path class="cls-1" d="M19.88,16.41a.6.6,0,0,0-.78-.06l-.86.64a2.07,2.07,0,0,1-2.57-.2l-2.5-2.5a2.06,2.06,0,0,1-.2-2.57l.64-.86a.6.6,0,0,0-.06-.78L10.87,7.4a.6.6,0,0,0-.83,0L8.18,9.06a3.94,3.94,0,0,0-.46,5.29,33,33,0,0,0,3.77,4.13,33.15,33.15,0,0,0,4.13,3.77,3.79,3.79,0,0,0,2.38.82,3.92,3.92,0,0,0,2.91-1.28l1.68-1.87a.6.6,0,0,0,0-.83ZM20,21a2.7,2.7,0,0,1-3.67.31l-.07-.05a31.33,31.33,0,0,1-3.93-3.61,31.71,31.71,0,0,1-3.6-3.93l-.05-.08A2.72,2.72,0,0,1,9,10l1.44-1.3,1.92,1.92L12,11a3.28,3.28,0,0,0,.31,4.13l2.5,2.5a3.23,3.23,0,0,0,4.13.31l.45-.33,1.92,1.92Z" transform="translate(-0.6)"/><path class="cls-1" d="M28.8,4.8h-3V.6a.6.6,0,0,0-.6-.6H3a.6.6,0,0,0-.6.6v3H.6V4.8H2.4V6H.6V7.2H2.4V8.4H.6V9.6H2.4v1.2H.6V12H2.4v1.2H.6v1.2H2.4v1.2H.6v1.2H2.4V18H.6v1.2H2.4v1.2H.6v1.2H2.4v1.2H.6V24H2.4v1.2H.6v1.2H2.4v3A.6.6,0,0,0,3,30H25.2a.6.6,0,0,0,.6-.6v-15h3a.6.6,0,0,0,.6-.6V5.4A.6.6,0,0,0,28.8,4.8ZM3.6,28.8V26.4H4.8V25.2H3.6V24H4.8V22.8H3.6V21.6H4.8V20.4H3.6V19.2H4.8V18H3.6V16.8H4.8V15.6H3.6V14.4H4.8V13.2H3.6V12H4.8V10.8H3.6V9.6H4.8V8.4H3.6V7.2H4.8V6H3.6V4.8H4.8V3.6H3.6V1.2h21V28.8ZM28.2,13.2H25.8v-3h2.4Zm0-4.2H25.8V6h2.4Z" transform="translate(-0.6)"/></svg>