<svg viewBox="0 0 25 25" fill="none" xmlns="http://www.w3.org/2000/svg">
<g clip-path="url(#clip0)">
<path d="M5.98384 13.5938C5.37027 13.5938 4.87109 14.0929 4.87109 14.7064C4.87109 15.3199 5.37027 15.819 5.98384 15.819C6.59737 15.819 7.09649 15.3199 7.09649 14.7064C7.09649 14.0929 6.59732 13.5938 5.98384 13.5938ZM5.98384 15.0853C5.77495 15.0853 5.60498 14.9153 5.60498 14.7065C5.60498 14.4977 5.77495 14.3277 5.98384 14.3277C6.19273 14.3277 6.36265 14.4977 6.36265 14.7065C6.36265 14.9153 6.19268 15.0853 5.98384 15.0853Z" fill="white"/>
<path d="M16.0507 20.6697C16.0016 20.5184 15.8607 20.4161 15.7018 20.4161H13.5222L12.8486 18.3432C12.8001 18.1937 12.6568 18.0896 12.4997 18.0896C12.3425 18.0896 12.1993 18.1937 12.1507 18.3432L11.4772 20.4161H9.29762C9.13869 20.4161 8.99777 20.5184 8.94865 20.6696C8.89953 20.8208 8.95333 20.9865 9.08195 21.0798L10.8452 22.361L10.1717 24.4339C10.1247 24.5785 10.1741 24.7413 10.2935 24.8354C10.4211 24.9359 10.6049 24.9396 10.7363 24.8441L12.4996 23.5629L14.2629 24.8441C14.4008 24.9443 14.5946 24.9347 14.7221 24.8216C14.8301 24.7258 14.8722 24.5713 14.8275 24.4339L14.154 22.361L15.9172 21.0799C16.046 20.9865 16.0998 20.8208 16.0507 20.6697ZM13.5071 21.9239C13.3785 22.0173 13.3247 22.183 13.3738 22.3341L13.7807 23.5866L12.7153 22.8125C12.5881 22.7201 12.4111 22.7201 12.284 22.8125L11.2186 23.5866L11.6255 22.3341C11.6746 22.183 11.6208 22.0173 11.4922 21.9239L10.4268 21.1499H11.7437C11.9026 21.1499 12.0436 21.0476 12.0927 20.8963L12.4996 19.6439L12.9066 20.8963C12.9557 21.0476 13.0966 21.1499 13.2555 21.1499H14.5724L13.5071 21.9239Z" fill="white"/>
<path d="M24.9823 20.6696C24.9332 20.5184 24.7923 20.4161 24.6334 20.4161H22.4538L21.7803 18.3432C21.7318 18.1937 21.5884 18.0896 21.4313 18.0896C21.2742 18.0896 21.1309 18.1937 21.0823 18.3432L20.4088 20.4161H18.2293C18.0703 20.4161 17.9294 20.5184 17.8803 20.6696C17.8312 20.8208 17.885 20.9865 18.0136 21.0798L19.7769 22.361L19.1033 24.4339C19.0563 24.5785 19.1057 24.7413 19.2252 24.8354C19.3528 24.9359 19.5365 24.9396 19.668 24.8441L21.4313 23.5629L23.1946 24.8441C23.3325 24.9443 23.5263 24.9347 23.6538 24.8216C23.7618 24.7258 23.8039 24.5713 23.7592 24.4339L23.0857 22.361L24.8489 21.0799C24.9777 20.9865 25.0315 20.8208 24.9823 20.6696ZM22.4387 21.924C22.3101 22.0174 22.2563 22.183 22.3054 22.3342L22.7123 23.5866L21.647 22.8126C21.5183 22.7191 21.3442 22.7191 21.2156 22.8126L20.1502 23.5866L20.5571 22.3342C20.6063 22.183 20.5525 22.0173 20.4238 21.924L19.3585 21.15H20.6754C20.8343 21.15 20.9753 21.0476 21.0244 20.8964L21.4313 19.6439L21.8383 20.8964C21.8874 21.0476 22.0283 21.15 22.1872 21.15H23.5041L22.4387 21.924Z" fill="white"/>
<path d="M7.12008 20.6697C7.07091 20.5184 6.93 20.4161 6.77106 20.4161H4.59152L3.91798 18.3432C3.86886 18.1919 3.72794 18.0896 3.56901 18.0896C3.41007 18.0896 3.26916 18.1919 3.22003 18.3432L2.5465 20.4161H0.366958C0.208023 20.4161 0.0671047 20.5184 0.0179836 20.6696C-0.0311375 20.8208 0.0226711 20.9865 0.151284 21.0798L1.91457 22.361L1.24103 24.4339C1.19191 24.585 1.24572 24.7507 1.37433 24.8441C1.5029 24.9375 1.67707 24.9375 1.80568 24.8441L3.56896 23.5629L5.33224 24.8441C5.47018 24.9443 5.66398 24.9347 5.79142 24.8216C5.89948 24.7258 5.94152 24.5713 5.89684 24.4339L5.22331 22.361L6.98659 21.0799C7.1154 20.9865 7.1692 20.8208 7.12008 20.6697ZM4.57643 21.9239C4.44782 22.0173 4.39401 22.183 4.44313 22.3341L4.85006 23.5866L3.78463 22.8125C3.65749 22.7201 3.48043 22.7201 3.35329 22.8125L2.28795 23.5865L2.69484 22.3341C2.74396 22.1829 2.69015 22.0172 2.56154 21.9239L1.49616 21.1498H2.81305C2.97199 21.1498 3.11291 21.0475 3.16203 20.8963L3.56896 19.6438L3.97589 20.8963C4.02501 21.0475 4.16593 21.1498 4.32487 21.1498H5.64176L4.57643 21.9239Z" fill="white"/>
<path d="M22.0293 9.2334C22.4083 8.92841 22.6513 8.46079 22.6513 7.93759C22.6513 7.02075 21.9054 6.27485 20.9886 6.27485H15.0864C15.2699 5.87485 15.4816 5.26552 15.6027 4.4185C15.8838 2.45029 15.459 1.40556 15.0531 0.875728C14.7095 0.427291 14.2479 0.156099 13.7184 0.0915487C13.2715 0.0366659 12.8634 0.391598 12.8515 0.840523C12.7828 1.54629 12.5315 3.48247 12.1715 4.20249C11.2468 6.052 9.04199 7.15468 8.36103 7.45976C8.12275 7.25498 7.81328 7.13081 7.4752 7.13081H4.49209C3.7415 7.13081 3.13086 7.7414 3.13086 8.49204V15.9496C3.13086 16.7002 3.7415 17.3108 4.49209 17.3108H7.4751C7.87671 17.3108 8.23818 17.1359 8.4875 16.8583C8.87476 17.1028 9.49976 17.3752 10.3629 17.3752H19.9519C20.8687 17.3752 21.6146 16.6293 21.6146 15.7125C21.6146 15.2922 21.4579 14.9079 21.1998 14.6148C21.7519 14.344 22.1329 13.776 22.1329 13.1208C22.1329 12.7005 21.9761 12.3162 21.718 12.0231C22.2702 11.7524 22.6511 11.1844 22.6511 10.5291C22.6513 10.006 22.4083 9.53838 22.0293 9.2334ZM7.4751 16.577H4.49209C4.14614 16.577 3.8647 16.2955 3.8647 15.9496V8.49199C3.8647 8.14604 4.14614 7.8646 4.49209 7.8646H7.4751C7.65029 7.8646 7.80874 7.93696 7.92266 8.05317V16.2358C7.92266 16.2797 7.93061 16.3228 7.94565 16.3632C7.83057 16.4939 7.66255 16.577 7.4751 16.577ZM19.4469 9.60029H20.9887C21.5009 9.60029 21.9176 10.017 21.9176 10.5291C21.9176 11.0413 21.5009 11.458 20.9887 11.458H19.4469C19.2443 11.458 19.08 11.6223 19.08 11.8249C19.08 12.0276 19.2443 12.1919 19.4469 12.1919H20.4704C20.9826 12.1919 21.3992 12.6086 21.3992 13.1207C21.3992 13.6329 20.9825 14.0496 20.4704 14.0496H19.1656C18.963 14.0496 18.7987 14.2139 18.7987 14.4165C18.7987 14.6192 18.963 14.7835 19.1656 14.7835H19.952C20.4642 14.7835 20.8809 15.2002 20.8809 15.7124C20.8809 16.2246 20.4642 16.6413 19.952 16.6413H10.363C9.60566 16.6413 9.09224 16.3875 8.81348 16.1971C8.82832 16.1167 8.83647 16.034 8.83647 15.9495V8.49199C8.83647 8.34853 8.81401 8.2103 8.77271 8.08042C9.63247 7.68584 11.8336 6.51919 12.8279 4.53066C13.3252 3.53608 13.5731 1.00337 13.5834 0.896041C13.5845 0.88442 13.5851 0.872652 13.5851 0.860982C13.5851 0.848482 13.5899 0.837838 13.5993 0.829537C13.6125 0.817965 13.6252 0.81943 13.6294 0.819967C13.8591 0.847994 14.1915 0.957857 14.4706 1.32202C14.7909 1.74018 15.1213 2.59882 14.8762 4.31474C14.6685 5.76919 14.1758 6.40547 14.1728 6.40942C13.9804 6.64448 14.1536 7.00874 14.4567 7.00874H20.9887C21.5009 7.00874 21.9175 7.42548 21.9175 7.93764C21.9175 8.44985 21.5008 8.8665 20.9887 8.8665H19.4469C19.2442 8.8665 19.0799 9.03076 19.0799 9.23344C19.0799 9.43613 19.2442 9.60029 19.4469 9.60029Z" fill="white"/>
</g>
<defs>
<clipPath id="clip0">
<rect width="25" height="25" fill="white"/>
</clipPath>
</defs>
</svg>
